<svg width="64" height="91" viewBox="0 0 64 91" fill="none" xmlns="http://www.w3.org/2000/svg">
<g clip-path="url(#clip0_11_43)">
<path d="M31.961 90.7701L5.91549 83.4795L0.111237 17.8385H63.8887L58.0785 83.4694L31.961 90.7701Z" fill="white"/>
<path d="M53.1043 79.2902L58.0693 23.2054H32V85.1896L53.1043 79.2902Z" fill="white"/>
<path d="M13.4172 47.5509L14.1327 55.6015H32V47.5509H13.4172ZM11.9792 31.2563L12.705 39.307H32V31.2563H11.9792ZM32 68.4592L31.965 68.4686L23.073 66.0476L22.5045 59.6269H14.4895L15.608 72.2676L31.9632 76.8453L32 76.8353V68.4592Z" fill="#070707"/>
<path d="M15.121 0H24.791V4.07761H19.165V8.15521H24.7915V12.2326H15.121V0ZM26.7253 0H36.3955V3.54572H30.7693V4.25482H36.3955V12.41H26.7255V8.68659H32.3518V7.9775H26.725V0H26.7253ZM38.3298 0H48V3.54572H42.3738V4.25482H48V12.41H38.3298V8.68659H43.956V7.9775H38.33V0H38.3298Z" fill="white"/>
<path d="M50.5317 47.5509L51.973 31.2563H31.9725V39.307H43.223L42.4965 47.5509H31.9725V55.6015H41.8042L40.8772 66.0426L31.9722 68.466V76.8416L48.3405 72.2676L48.4605 70.9074L50.337 49.7127L50.5317 47.5509Z" fill="black"/>
</g>
<defs>
<clipPath id="clip0_11_43">
<rect width="64" height="91" fill="white"/>
</clipPath>
</defs>
</svg>
