<svg width="60" height="60" viewBox="0 0 60 60" fill="none" xmlns="http://www.w3.org/2000/svg">
<path d="M2.5684e-06 9.70565C2.5684e-06 7.13155 1.02311 4.66288 2.84425 2.84272C4.66539 1.02256 7.13539 0 9.71088 0H39.7157C42.2912 0 44.7612 1.02256 46.5823 2.84272C48.4035 4.66288 49.4266 7.13155 49.4266 9.70565V25.5276C48.2789 26.0217 47.2019 26.7346 46.2661 27.6734L44.1297 29.8087V14.1173H5.29684V39.6979C5.29684 42.1331 7.27433 44.1095 9.71088 44.1095H29.8177L29.2138 44.7166C27.9033 46.0263 26.9355 47.6384 26.3959 49.4106H9.71088C8.43503 49.4106 7.17169 49.1593 5.99305 48.6711C4.81442 48.1829 3.74358 47.4673 2.84175 46.5653C1.93992 45.6633 1.22477 44.5926 0.737171 43.4142C0.249569 42.2359 -0.000925319 40.973 2.5684e-06 39.6979V9.70565ZM22.4374 20.6607C22.769 20.3298 22.9554 19.8808 22.9557 19.4125C22.9561 18.9443 22.7703 18.495 22.4392 18.1637C22.1081 17.8323 21.6589 17.646 21.1904 17.6456C20.7218 17.6453 20.2724 17.831 19.9408 18.1619L11.1128 26.9852C10.9483 27.1491 10.8179 27.3439 10.7289 27.5583C10.6399 27.7727 10.5941 28.0025 10.5941 28.2346C10.5941 28.4667 10.6399 28.6966 10.7289 28.9109C10.8179 29.1253 10.9483 29.3201 11.1128 29.484L19.9408 38.3073C20.2724 38.6382 20.7218 38.8239 21.1904 38.8236C21.6589 38.8232 22.1081 38.6369 22.4392 38.3055C22.7703 37.9742 22.9561 37.5249 22.9557 37.0567C22.9554 36.5884 22.769 36.1394 22.4374 35.8085L14.8594 28.2346L22.4374 20.6607ZM28.7654 38.3073C28.601 38.1434 28.4705 37.9486 28.3815 37.7343C28.2925 37.5199 28.2467 37.29 28.2467 37.0579C28.2467 36.8258 28.2925 36.596 28.3815 36.3816C28.4705 36.1672 28.601 35.9725 28.7654 35.8085L36.3469 28.2346L28.7654 20.6607C28.4338 20.3293 28.2476 19.8799 28.2476 19.4113C28.2476 18.9427 28.4338 18.4933 28.7654 18.1619C29.0969 17.8306 29.5466 17.6444 30.0154 17.6444C30.4843 17.6444 30.934 17.8306 31.2655 18.1619L40.0936 26.9852C40.4246 27.3161 40.6105 27.7649 40.6105 28.2328C40.6105 28.7008 40.4246 29.1495 40.0936 29.4805L31.2655 38.3038C31.1015 38.4681 30.9066 38.5985 30.6921 38.6875C30.4776 38.7764 30.2477 38.8222 30.0154 38.8222C29.7832 38.8222 29.5532 38.7764 29.3387 38.6875C29.1242 38.5985 28.9294 38.4681 28.7654 38.3038V38.3073ZM48.7627 30.1687L31.7069 47.2153C30.7141 48.2088 30.0099 49.453 29.6694 50.8152L28.3452 56.1022C28.2146 56.628 28.2223 57.1786 28.3675 57.7006C28.5128 58.2226 28.7907 58.6981 29.1741 59.081C29.5576 59.4639 30.0337 59.7412 30.556 59.8859C31.0784 60.0306 31.6294 60.0378 32.1554 59.9068L37.4451 58.5868C38.8087 58.246 40.0537 57.5408 41.047 56.5469L58.1028 39.5002C59.3251 38.259 60.007 36.5853 59.9999 34.8438C59.9929 33.1023 59.2974 31.4341 58.065 30.2029C56.8327 28.9717 55.1634 28.2772 53.4209 28.2708C51.6785 28.2644 50.0041 28.9466 48.7627 30.1687V30.1687Z" fill="black"/>
</svg>
