<svg width="63" height="63" viewBox="0 0 63 63" fill="none" xmlns="http://www.w3.org/2000/svg">
<path fill-rule="evenodd" clip-rule="evenodd" d="M31.4436 0.000192895C23.9776 0.0012247 16.7555 2.72994 11.0692 7.69823C5.38296 12.6665 1.60341 19.5502 0.406691 27.1181C-0.790029 34.6859 0.674151 42.4441 4.53732 49.0048C8.40048 55.5656 14.4106 60.5009 21.4926 62.928C23.065 63.2279 23.7389 62.236 23.7389 61.3825V55.8925C15.0009 57.8301 13.159 51.5558 13.159 51.5558C12.5445 49.5785 11.2512 47.8979 9.52 46.827C6.66725 44.8432 9.74463 44.8662 9.74463 44.8662C10.7411 45.0108 11.6922 45.3873 12.5253 45.967C13.3584 46.5467 14.0515 47.3142 14.5516 48.211C15.4217 49.8136 16.8759 50.9957 18.5945 51.4975C20.3132 51.9993 22.1555 51.7796 23.7164 50.8868C23.8432 49.2501 24.5459 47.7168 25.6931 46.5732C18.7297 45.7428 11.3844 42.9747 11.3844 30.6106C11.3335 27.3994 12.4923 24.2921 14.619 21.9373C13.6564 19.1558 13.769 16.1012 14.9335 13.4023C14.9335 13.4023 17.5616 12.5258 23.5816 16.701C28.7289 15.2591 34.1582 15.2591 39.3055 16.701C45.303 12.5258 47.9312 13.4023 47.9312 13.4023C49.0957 16.1012 49.2082 19.1558 48.2456 21.9373C50.3723 24.2921 51.5312 27.3994 51.4803 30.6106C51.4803 43.0209 44.135 45.7428 37.1266 46.5502C37.8774 47.3316 38.4563 48.2692 38.8244 49.2998C39.1925 50.3304 39.3412 51.43 39.2606 52.5246V61.3825C39.2606 62.4436 39.8221 63.2509 41.5068 62.928C48.5981 60.4979 54.6145 55.5531 58.477 48.9802C62.3396 42.4074 63.7957 34.6365 62.5843 27.061C61.3728 19.4855 57.573 12.6009 51.8663 7.64188C46.1596 2.68284 38.9192 -0.0263288 31.4436 0.000192895Z" fill="#FEFBFB"/>
</svg>
