<svg width="64" height="64" viewBox="0 0 64 64" fill="none" xmlns="http://www.w3.org/2000/svg">
<path d="M44.812 22.068C46.4026 22.068 47.692 20.7786 47.692 19.188C47.692 17.5974 46.4026 16.308 44.812 16.308C43.2214 16.308 41.932 17.5974 41.932 19.188C41.932 20.7786 43.2214 22.068 44.812 22.068Z" fill="#FEFEFE"/>
<path d="M32 19.676C29.5625 19.676 27.1798 20.3988 25.1532 21.753C23.1265 23.1072 21.5469 25.0319 20.6141 27.2838C19.6813 29.5358 19.4373 32.0137 19.9128 34.4043C20.3883 36.7949 21.5621 38.9909 23.2856 40.7144C25.0092 42.438 27.2051 43.6117 29.5957 44.0872C31.9863 44.5627 34.4643 44.3187 36.7162 43.3859C38.9681 42.4531 40.8929 40.8735 42.247 38.8469C43.6012 36.8202 44.324 34.4375 44.324 32C44.324 28.7315 43.0256 25.5968 40.7144 23.2856C38.4032 20.9744 35.2685 19.676 32 19.676ZM32 40C30.4178 40 28.871 39.5308 27.5554 38.6518C26.2398 37.7727 25.2145 36.5233 24.609 35.0615C24.0035 33.5997 23.845 31.9912 24.1537 30.4393C24.4624 28.8875 25.2243 27.462 26.3431 26.3432C27.462 25.2244 28.8874 24.4624 30.4393 24.1537C31.9911 23.8451 33.5997 24.0035 35.0615 24.609C36.5233 25.2145 37.7727 26.2399 38.6518 27.5555C39.5308 28.8711 40 30.4178 40 32C40 34.1218 39.1571 36.1566 37.6569 37.6569C36.1566 39.1572 34.1217 40 32 40Z" fill="#FEFEFE"/>
<path d="M32 12.324C38.408 12.324 39.168 12.348 41.698 12.464C43.2197 12.4821 44.7269 12.7615 46.154 13.29C47.1893 13.6894 48.1296 14.3011 48.9142 15.0858C49.6989 15.8704 50.3106 16.8107 50.71 17.846C51.2385 19.2731 51.5179 20.7803 51.536 22.302C51.652 24.832 51.676 25.592 51.676 32.002C51.676 38.412 51.652 39.168 51.536 41.698C51.5179 43.2197 51.2385 44.7269 50.71 46.154C50.3106 47.1893 49.6989 48.1296 48.9142 48.9142C48.1296 49.6989 47.1893 50.3106 46.154 50.71C44.7269 51.2385 43.2197 51.5179 41.698 51.536C39.168 51.652 38.408 51.676 32 51.676C25.592 51.676 24.832 51.652 22.302 51.536C20.7803 51.5179 19.2731 51.2385 17.846 50.71C16.8107 50.3106 15.8704 49.6989 15.0858 48.9142C14.3011 48.1296 13.6894 47.1893 13.29 46.154C12.7615 44.7269 12.4821 43.2197 12.464 41.698C12.348 39.168 12.324 38.408 12.324 32C12.324 25.592 12.348 24.832 12.464 22.302C12.4821 20.7803 12.7615 19.2731 13.29 17.846C13.6894 16.8107 14.3011 15.8704 15.0858 15.0858C15.8704 14.3011 16.8107 13.6894 17.846 13.29C19.2731 12.7615 20.7803 12.4821 22.302 12.464C24.832 12.348 25.592 12.324 32 12.324ZM32 8C25.482 8 24.664 8.028 22.104 8.144C20.1135 8.18419 18.1443 8.56154 16.28 9.26C14.6854 9.87659 13.2373 10.8196 12.0284 12.0284C10.8196 13.2373 9.87659 14.6854 9.26 16.28C8.56132 18.1449 8.18397 20.1149 8.144 22.106C8.028 24.666 8 25.48 8 32C8 38.52 8.028 39.336 8.144 41.896C8.18419 43.8865 8.56154 45.8557 9.26 47.72C9.87659 49.3146 10.8196 50.7627 12.0284 51.9716C13.2373 53.1804 14.6854 54.1234 16.28 54.74C18.1449 55.4387 20.1149 55.816 22.106 55.856C24.666 55.972 25.482 56 32 56C38.518 56 39.336 55.972 41.896 55.856C43.8871 55.816 45.8571 55.4387 47.722 54.74C49.3166 54.1234 50.7647 53.1804 51.9736 51.9716C53.1824 50.7627 54.1254 49.3146 54.742 47.72C55.44 45.8549 55.8167 43.885 55.856 41.894C55.972 39.334 56 38.52 56 32C56 25.48 55.972 24.664 55.856 22.104C55.8158 20.1135 55.4385 18.1443 54.74 16.28C54.1234 14.6854 53.1804 13.2373 51.9716 12.0284C50.7627 10.8196 49.3146 9.87659 47.72 9.26C45.8549 8.562 43.885 8.18533 41.894 8.146C39.334 8.026 38.52 8 32 8Z" fill="#FEFEFE"/>
</svg>
