<svg width="64" height="72" viewBox="0 0 64 72" fill="none" xmlns="http://www.w3.org/2000/svg">
<path d="M0 0H64V72H0V0ZM58.76 54.8325C58.292 51.5385 56.384 48.7845 50.75 46.2083C48.792 45.1777 46.604 44.451 45.958 42.786C45.718 41.8005 45.676 41.2627 45.832 40.6755C46.238 38.7292 48.27 38.1555 49.874 38.6955C50.916 39.0578 51.874 39.9487 52.478 41.391C55.238 39.3638 55.238 39.3638 57.156 38.016C56.438 36.7627 56.084 36.2115 55.594 35.685C53.916 33.5632 51.678 32.4855 48.042 32.58L46.156 32.85C44.354 33.3428 42.636 34.4205 41.594 35.8628C38.562 39.7305 39.438 46.4805 43.114 49.2817C46.75 52.3395 52.072 53.0077 52.76 55.8923C53.396 59.409 50.438 60.534 47.51 60.1223C45.354 59.5823 44.156 58.365 42.832 56.115L37.956 59.2673C38.508 60.7095 39.154 61.3305 40.112 62.595C44.748 67.8577 56.352 67.5878 58.434 59.5823C58.506 59.3123 59.07 57.4605 58.632 54.6368L58.76 54.8325ZM34.802 33.093H28.812C28.812 38.9048 28.78 44.6828 28.78 50.508C28.78 54.2002 28.946 57.5977 28.416 58.6418C27.53 60.705 25.27 60.4463 24.238 60.084C23.186 59.499 22.644 58.689 22.03 57.5168C21.852 57.1995 21.728 56.9317 21.686 56.9317L16.822 60.3067C17.634 62.1945 18.822 63.8235 20.354 64.854C22.636 66.3885 25.698 66.8812 28.906 66.0735C30.99 65.394 32.792 63.999 33.728 61.8435C35.092 59.0535 34.8 55.6335 34.79 51.7995C34.822 45.6345 34.79 39.4717 34.79 33.2595L34.802 33.093Z" fill="#FDFCFC"/>
</svg>
