<svg width="64" height="64" viewBox="0 0 64 64" fill="none" xmlns="http://www.w3.org/2000/svg">
<path d="M52.4 8H11.6C9.6 8 8 9.6 8 11.4V52.4C8 54.2 9.6 55.8 11.6 55.8H52.4C54.4 55.8 56 54.2 56 52.4V11.4C56 9.6 54.4 8 52.4 8ZM22.2 48.8H15.2V26H22.2V48.8ZM18.8 22.8C16.6 22.8 14.6 21 14.6 18.6C14.6 16.2 16.4 14.4 18.8 14.4C21 14.4 23 16.2 23 18.6C23 21 21 22.8 18.8 22.8ZM49 48.6H42V37.4C42 34.8 42 31.2 38.2 31.2C34.4 31.2 34 34.2 34 37V48.4H27V26H33.6V29H33.8C34.8 27.2 37.2 25.2 40.6 25.2C47.8 25.2 49.2 30 49.2 36.2V48.6H49Z" fill="#FEFEFE"/>
</svg>
