<svg width="64" height="90" viewBox="0 0 64 90" fill="none" xmlns="http://www.w3.org/2000/svg">
<g clip-path="url(#clip0_11_37)">
<path d="M63.8887 17.6426L58.0785 82.5523L31.961 89.7727L5.91546 82.5622L0.111206 17.6426H63.8887Z" fill="#FDFDFD"/>
<path d="M32 84.2534L53.1042 78.4189L58.0692 22.9504H32V84.2534Z" fill="#FDFDFD"/>
<path d="M20.705 38.8751H32V30.913H11.9792L12.1702 33.049L14.1327 54.9906H32V47.0284H21.4347L20.705 38.8751ZM22.5045 58.9718H14.4895L15.608 71.4735L31.9633 76.001L32 75.991V67.707L31.965 67.7162L23.073 65.3219L22.5045 58.9718Z" fill="#050505"/>
<path d="M6.04498 0H10.1025V3.99765H13.8142V0H17.872V12.1059H13.8145V8.05213H10.1027V12.1059H6.04523V0H6.04498ZM23.2075 4.0146H19.636V0H30.8395V4.0146H27.2657V12.1059H23.2082V4.0146H23.208H23.2075ZM32.6175 0H36.8482L39.4507 4.25368L42.0507 0H46.2832V12.1059H42.2422V6.10554L39.4507 10.4098H39.3807L36.5875 6.10554V12.1059H32.6175V0ZM48.3025 0H52.3612V8.10449H58.0672V12.1059H48.3022V0H48.3025Z" fill="#FFFAFA"/>
<path d="M31.9725 54.9906H41.8042L40.8772 65.3169L31.9722 67.7137V75.9972L48.3405 71.4735L48.4605 70.1283L50.337 49.1665L50.5317 47.0284H31.9725V54.9906ZM31.9725 38.8557V38.8751H51.2582L51.4182 37.0856L51.7822 33.049L51.973 30.913H31.9725V38.8559V38.8557Z" fill="#020202"/>
</g>
<defs>
<clipPath id="clip0_11_37">
<rect width="64" height="90" fill="white"/>
</clipPath>
</defs>
</svg>
