<svg width="60" height="60" viewBox="0 0 60 60" fill="none" xmlns="http://www.w3.org/2000/svg">
<path d="M30 18.75C32.0711 18.75 33.75 17.0711 33.75 15C33.75 12.9289 32.0711 11.25 30 11.25C27.9289 11.25 26.25 12.9289 26.25 15C26.25 17.0711 27.9289 18.75 30 18.75Z" fill="black"/>
<path d="M30 33.75C32.0711 33.75 33.75 32.0711 33.75 30C33.75 27.9289 32.0711 26.25 30 26.25C27.9289 26.25 26.25 27.9289 26.25 30C26.25 32.0711 27.9289 33.75 30 33.75Z" fill="black"/>
<path d="M30 48.75C32.0711 48.75 33.75 47.0711 33.75 45C33.75 42.9289 32.0711 41.25 30 41.25C27.9289 41.25 26.25 42.9289 26.25 45C26.25 47.0711 27.9289 48.75 30 48.75Z" fill="black"/>
</svg>
