<svg width="83" height="92" viewBox="0 0 83 92" fill="none" xmlns="http://www.w3.org/2000/svg">
<path d="M71.3281 15.8125H47.2062L41.7594 27.8875H11.4125V76.1875H76.775V15.8125H71.3281ZM71.3281 27.8875H50.0593L52.9125 21.85H71.3281V27.8875Z" fill="#FCFEFC"/>
<path d="M69.4477 89.1249L67.9874 88.5873C67.9874 88.5873 68.1741 80.3907 65.5077 79.8185C63.7492 77.5588 65.7671 -16.655 72.1659 79.4965C70.9513 80.1787 70.0219 81.3552 69.5722 82.7798C69.3311 84.8842 69.2893 87.0108 69.4477 89.1249Z" fill="#999875"/>
<path d="M70.2362 81.2101C74.1252 77.9637 77.1032 73.5607 78.8241 68.5126C80.5449 63.4645 80.938 57.9788 79.9575 52.693C77.1044 38.709 70.3321 34.1118 69.6033 32.3581C68.9734 31.2654 68.4359 30.1104 67.9977 28.9081L68.5372 67.8701C68.5372 67.8701 67.4193 79.7755 70.2362 81.2101Z" fill="#F8F8F8"/>
<path d="M67.2429 81.7276C67.2429 81.7276 55.335 72.7375 56.025 56.8359C56.0893 52.0419 57.0809 47.319 58.933 42.9861C60.785 38.6533 63.4543 34.8114 66.7605 31.7199C67.1459 31.355 67.4522 30.8985 67.6565 30.3843C67.8609 29.8701 67.958 29.3115 67.9406 28.75C68.6825 30.5181 68.5606 55.1483 68.6384 58.029C68.9418 69.2357 68.0781 79.6116 67.2429 81.7276Z" fill="#FEFEFE"/>
</svg>
