<svg width="1440" height="206" viewBox="0 0 1440 150" fill="none" xmlns="http://www.w3.org/2000/svg">
<path fill-rule="evenodd" clip-rule="evenodd" d="M0 0L40 4.76301C80 8.93064 160 17.2659 240 34.5318C320 51.7977 400 77.3988 480 85.7341C560 94.6647 640 85.7341 720 69.0636C800 51.7977 880 26.1965 960 42.8671C1075 85.7341 1120 126 1200 126C1280 126 1360 60.1329 1400 30.3642L1440 0V206H1400C1360 206 1280 206 1200 206C1120 206 1040 206 960 206C880 206 800 206 720 206C640 206 560 206 480 206C400 206 320 206 240 206C160 206 80 206 40 206H0V0Z" fill="#F55E08" fill-opacity="0.87"/>
</svg>
