<svg width="82" height="93" viewBox="0 0 82 93" fill="none" xmlns="http://www.w3.org/2000/svg">
<g clip-path="url(#clip0_11_59)">
<path d="M41 21.3125C18.0093 21.3125 7.62939e-06 32.3756 7.62939e-06 46.5C7.62939e-06 60.6244 18.0093 71.6875 41 71.6875C63.9908 71.6875 82 60.6244 82 46.5C82 32.3756 63.9908 21.3125 41 21.3125ZM36.7428 29.0625H41.2187L39.7973 36.8125H43.7948C46.33 36.8125 48.0315 37.2155 49.0018 38.2191C49.9483 39.2111 50.2353 40.8386 49.856 43.0551L48.0793 52.3125H43.5283L45.1649 43.7526C45.3631 42.5785 45.2845 41.7609 44.936 41.3308C44.5909 40.9006 43.829 40.6875 42.6878 40.6875H39.1038L36.941 52.3125H32.4583L36.7428 29.0625ZM17.0833 36.8125H26.1922C30.5348 36.8125 33.1656 40.114 32.1372 45.0391C30.9413 50.7625 27.7433 52.3125 21.853 52.3125H19.0377L18.1459 58.125H13.6188L17.0833 36.8125ZM52.9583 36.8125H62.0672C66.4098 36.8125 69.0406 40.114 68.0122 45.0391C66.8163 50.7625 63.6149 52.3125 57.728 52.3125H54.9127L54.0209 58.125H49.4938L52.9583 36.8125ZM20.9613 40.6875L19.6732 48.4375H22.5944C25.1228 48.4375 27.4734 48.112 27.8663 43.834C28.0133 42.1794 27.4051 40.6875 24.4838 40.6875H20.9613ZM56.8363 40.6875L55.5482 48.4375H58.4694C60.9978 48.4375 63.3484 48.112 63.7413 43.834C63.8883 42.1794 63.2835 40.6875 60.3588 40.6875H56.8363Z" fill="#F9F9F9"/>
</g>
<defs>
<clipPath id="clip0_11_59">
<rect width="82" height="93" fill="white"/>
</clipPath>
</defs>
</svg>
