<svg width="64" height="77" viewBox="0 0 64 77" fill="none" xmlns="http://www.w3.org/2000/svg">
<g clip-path="url(#clip0_11_61)">
<path d="M63.9999 37.5021C63.9999 32.4009 58.6906 27.5659 50.5493 24.5693C52.4293 14.5882 51.5946 6.64438 47.9146 4.10017C47.0229 3.49931 46.0137 3.19687 44.9919 3.22429V6.72138C45.5919 6.72138 46.0746 6.86575 46.4799 7.13204C48.2533 8.35763 49.0239 13.0161 48.4239 19.0125C48.2799 20.4883 48.0453 22.0412 47.7573 23.6261C45.031 22.8357 42.264 22.2644 39.4746 21.916C37.8129 19.1578 36 16.5361 34.0479 14.0685C38.3013 9.31371 42.2933 6.70854 45.0079 6.70854V3.20825C41.4186 3.20825 36.7226 6.28504 31.9733 11.6205C27.2266 6.32034 22.5279 3.27242 18.9413 3.27242V6.7695C21.6426 6.7695 25.6479 9.36184 29.9013 14.0845C28.0746 16.3945 26.2479 19.0125 24.5119 21.916C21.7168 22.2605 18.9449 22.8373 16.2159 23.6421C15.9275 22.14 15.7006 20.6217 15.5359 19.0927C14.9226 13.0931 15.6799 8.43463 17.4426 7.19621C17.8319 6.91388 18.3413 6.78554 18.9413 6.78554V3.28846C17.8479 3.28846 16.8533 3.57079 15.9946 4.16434C12.3279 6.70854 11.5066 14.6331 13.3973 24.5854C5.28261 27.6012 -6.10352e-05 32.4169 -6.10352e-05 37.5021C-6.10352e-05 42.6034 5.30927 47.4383 13.4506 50.4317C11.5706 60.416 12.4053 68.3599 16.0853 70.9009C16.9333 71.4976 17.9253 71.78 19.0186 71.78C22.6079 71.78 27.3039 68.7032 32.0533 63.3677C36.7999 68.6711 41.4959 71.7158 45.0853 71.7158C46.1149 71.742 47.1318 71.4386 48.0319 70.8367C51.6986 68.2957 52.5199 60.3711 50.6293 50.4189C58.7173 47.4223 63.9999 42.5873 63.9999 37.5021ZM47.0133 27.0333C46.5066 29.1311 45.9193 31.1995 45.2533 33.2318C44.163 30.6804 42.9659 28.1972 41.6666 25.7917C43.5199 26.1222 45.3066 26.5296 47.0159 27.0333H47.0133ZM41.0399 43.7488C40.0632 45.8004 39.0143 47.801 37.8959 49.7451C33.9819 50.1602 30.0454 50.1656 26.1306 49.7612C23.8851 45.9021 21.9214 41.8166 20.2613 37.5503C21.9188 33.2739 23.8743 29.174 26.1066 25.2944C30.0196 24.8785 33.9553 24.8721 37.8693 25.2752C38.9519 27.1424 40.0106 29.138 41.0266 31.2427C42.0186 33.296 42.9199 35.3814 43.7413 37.4861C42.9108 39.6163 42.0097 41.7055 41.0399 43.7488ZM45.2533 41.7083C45.9573 43.8097 46.5599 45.9144 47.0533 47.9549C45.3466 48.4586 43.5439 48.8821 41.6799 49.2093C42.9739 46.782 44.1665 44.2785 45.2533 41.7083ZM32.0266 58.4558C30.8133 56.9478 29.5999 55.2699 28.3999 53.4315C29.5733 53.4957 30.7733 53.5438 31.9866 53.5438C33.2133 53.5438 34.4266 53.5117 35.6133 53.4315C34.4399 55.2699 33.2266 56.9478 32.0266 58.4558ZM22.3199 49.2093C20.5219 48.8959 18.7369 48.4827 16.9706 47.9709C17.4533 45.9465 18.0533 43.8578 18.7306 41.7724C19.2666 43.0237 19.8293 44.2813 20.4426 45.539C21.0559 46.7935 21.6799 48.0191 22.3199 49.2093ZM31.9599 16.5485C33.1733 18.0564 34.3866 19.7344 35.5866 21.5728C34.4133 21.5086 33.2133 21.4605 31.9999 21.4605C30.7733 21.4605 29.5599 21.4925 28.3733 21.5728C29.5466 19.7344 30.7599 18.0564 31.9599 16.5485ZM22.3066 25.7949C21.0129 28.217 19.8203 30.7151 18.7333 33.28C18.0485 31.2345 17.4478 29.1498 16.9333 27.0333C18.6399 26.5457 20.4426 26.1222 22.3066 25.7949ZM10.5013 45.4428C5.88261 43.075 2.89594 39.9661 2.89594 37.5021C2.89594 35.0381 5.88261 31.9132 10.5013 29.5615C11.6213 28.9808 12.8479 28.461 14.1146 27.9766C14.8586 31.0502 15.8373 34.2521 17.0479 37.5342C15.9049 40.6212 14.9382 43.7984 14.1546 47.0437C12.9158 46.5822 11.6966 46.0479 10.5013 45.4428ZM17.5199 67.869C15.7466 66.6498 14.9759 61.9849 15.5759 55.9918C15.7199 54.5159 15.9546 52.9599 16.2426 51.375C18.7973 52.1289 21.5893 52.7096 24.5253 53.0882C26.1871 55.8464 28 58.4681 29.9519 60.9358C25.6986 65.6906 21.7066 68.2957 18.9919 68.2957C18.4798 68.3024 17.9742 68.157 17.5199 67.8722V67.869ZM48.4639 55.9115C49.0773 61.9079 48.3199 66.5696 46.5573 67.8081C46.1679 68.0904 45.6586 68.2155 45.0586 68.2155C42.3573 68.2155 38.3519 65.6264 34.0986 60.9005C36.0424 58.4431 37.8431 55.8275 39.4879 53.0722C42.2831 52.7277 45.055 52.151 47.7839 51.3461C48.0853 52.931 48.3173 54.4518 48.4639 55.9115ZM53.4853 45.4428C52.3653 46.0235 51.1386 46.5432 49.8719 47.0277C49.0745 43.7658 48.0945 40.5726 46.9386 37.47C48.1386 34.2072 49.1013 31.0213 49.8319 27.9605C51.0747 28.4236 52.2983 28.9578 53.4986 29.5615C58.1173 31.9293 61.1039 35.0381 61.1039 37.5021C61.0906 39.9661 58.1039 43.091 53.4853 45.4428Z" fill="#FAFAFA"/>
<path d="M31.9866 44.6759C33.568 44.6759 35.0846 43.9201 36.2029 42.5747C37.3211 41.2294 37.9493 39.4047 37.9493 37.5021C37.9493 35.5995 37.3211 33.7748 36.2029 32.4294C35.0846 31.0841 33.568 30.3282 31.9866 30.3282C30.4052 30.3282 28.8886 31.0841 27.7704 32.4294C26.6522 33.7748 26.024 35.5995 26.024 37.5021C26.024 39.4047 26.6522 41.2294 27.7704 42.5747C28.8886 43.9201 30.4052 44.6759 31.9866 44.6759Z" fill="#FAFAFA"/>
</g>
<defs>
<clipPath id="clip0_11_61">
<rect width="64" height="77" fill="white"/>
</clipPath>
</defs>
</svg>
