<svg width="63" height="63" viewBox="0 0 63 63" fill="none" xmlns="http://www.w3.org/2000/svg">
<path d="M45.927 37.7547C45.1375 37.3551 41.2926 35.4788 40.574 35.2111C39.8554 34.9552 39.3337 34.8213 38.81 35.6107C38.2981 36.3805 36.79 38.1426 36.3293 38.6564C35.8687 39.1702 35.4158 39.2096 34.6382 38.8612C33.8487 38.4615 31.3267 37.6405 28.3323 34.9552C25.9934 32.8742 24.4361 30.3109 23.9735 29.5214C23.5128 28.7418 23.9223 28.3008 24.3121 27.911C24.6704 27.5527 25.1016 27.0093 25.5012 26.5368C25.8812 26.0643 26.0033 25.7473 26.2808 25.2354C26.5368 24.6822 26.4049 24.2511 26.21 23.8612C26.0151 23.4714 24.446 19.6068 23.7904 18.0672C23.1643 16.5395 22.5087 16.7344 22.0264 16.7344C21.5755 16.693 21.0518 16.693 20.5301 16.693C20.0084 16.693 19.1559 16.8879 18.4373 17.6361C17.7188 18.4255 15.689 20.3116 15.689 24.127C15.689 27.9523 18.4984 31.6536 18.8882 32.2068C19.2878 32.7187 24.4145 40.5937 32.2796 43.9779C34.1558 44.7674 35.6127 45.2399 36.7507 45.6297C38.6269 46.2243 40.3397 46.1416 41.6922 45.9467C43.1885 45.7006 46.3267 44.0488 46.9842 42.2041C47.6516 40.3476 47.6516 38.81 47.4567 38.4615C47.2618 38.1032 46.7499 37.9083 45.9605 37.5598L45.927 37.7547ZM31.6634 57.0938H31.6221C26.966 57.0938 22.363 55.8318 18.3428 53.4732L17.3998 52.9102L7.55606 55.4735L10.2021 45.8955L9.56616 44.9111C6.96635 40.7775 5.58711 35.9935 5.58731 31.1102C5.58731 16.8171 17.2876 5.15812 31.6831 5.15812C38.6564 5.15812 45.1986 7.875 50.1204 12.7969C52.5484 15.196 54.4744 18.0546 55.7859 21.2059C57.0974 24.3572 57.7682 27.7382 57.7592 31.1515C57.7395 45.4348 46.0491 57.0938 31.6732 57.0938H31.6634ZM53.863 9.05428C47.8741 3.27009 39.9991 0 31.6221 0C14.3443 0 0.275625 14.0077 0.265781 31.2224C0.265781 36.7192 1.701 42.082 4.44938 46.8287L0 63L16.632 58.6628C21.2395 61.1469 26.3896 62.4536 31.624 62.4665H31.6339C48.9215 62.4665 62.9902 48.4588 63 31.2323C63 22.8966 59.7496 15.0511 53.8237 9.15469L53.863 9.05428Z" fill="#FFFCFC"/>
</svg>
